<svg width="89" height="40" viewBox="0 0 89 40" fill="none" xmlns="http://www.w3.org/2000/svg">
<path d="M11.104 29L12.224 23.368L13.12 16.712L14.016 23.368L15.136 29H22.176L26.08 13.192H19.808L19.104 19.944L18.592 25.512L17.696 19.976L16.256 13.192H9.92L8.608 19.976L7.648 25.512L7.136 19.944L6.432 13.192H0.16L4.064 29H11.104ZM34.41 29.32C36.97 29.32 38.666 28.104 39.338 27.336L37.77 23.016C37.258 23.816 36.426 24.328 35.722 24.328C34.986 24.328 34.57 23.912 34.57 23.08V17.544H38.41V13.192H34.57V8.84L28.81 11.4V13.192H26.57V17.544H28.81V23.912C28.81 26.984 30.314 29.32 34.41 29.32ZM49.6665 29L50.7865 23.368L51.6825 16.712L52.5785 23.368L53.6985 29H60.7385L64.6425 13.192H58.3705L57.6665 19.944L57.1545 25.512L56.2585 19.976L54.8185 13.192H48.4825L47.1705 19.976L46.2105 25.512L45.6985 19.944L44.9945 13.192H38.7225L42.6265 29H49.6665ZM71.1338 29V21.032C71.1338 18.472 72.3498 17.224 73.6618 17.224C74.5898 17.224 74.9738 17.832 74.9738 18.728C74.9738 19.688 74.3338 20.904 73.7578 21.576H79.0378C79.4858 20.776 80.1258 19.144 80.1258 17.224C80.1258 14.6 79.1018 12.872 76.3498 12.872C73.1178 12.872 71.6138 15.816 71.1338 18.536V13.192H65.3738V29H71.1338ZM84.3848 13.224C86.1128 13.224 87.5208 11.944 87.5208 10.056C87.5208 8.2 86.1128 6.92 84.3848 6.92C82.6568 6.92 81.2488 8.2 81.2488 10.056C81.2488 11.944 82.6568 13.224 84.3848 13.224ZM84.3848 11.016C83.8728 11.016 83.5528 10.664 83.5528 10.056C83.5528 9.448 83.8728 9.128 84.3848 9.128C84.8968 9.128 85.2168 9.448 85.2168 10.056C85.2168 10.664 84.8968 11.016 84.3848 11.016Z" fill="black"/>
</svg>
